# xmcd
#
# Track frame offsets: 
#        150
#        17308
#        17985
#        111931
#        130333
#        141199
#        186179
#        188927
#        212193
#        242509
#        246298
#        250074
#        254783
#        261957
#
# Disc length: 3709 seconds
#
# Revision: 0
# Processed by: cddbd v1.5.2PL0 Copyright (c) Steve Scherf et al.
# Submitted via: ExactAudioCopy v0.95b4
#
DISCID=d00e7b0e
DTITLE=The Beatles  - AB  Road - Complete Purple Chick Set v1.1 Jan.10
DTITLE=Various Artist - D4  FLAC
DYEAR=1900
DGENRE=
TTITLE0=Dialogue
TTITLE1=Dialogue
TTITLE2=Dialogue
TTITLE3=The Long And Winding Road 10.74
TTITLE4=Adagio For Strings 10.75
TTITLE5=Martha My Dear 10.76
TTITLE6=Improvisation 10.77
TTITLE7=Improvisation 10.78
TTITLE8=Improvisation 10.79
TTITLE9=Improvisation 10.80
TTITLE10=Improvisation 10.81
TTITLE11=Sun King 10.82
TTITLE12=Dear Prudence 10.83
TTITLE13=Dialogue
EXTD=
EXTT0=
EXTT1=
EXTT2=
EXTT3=
EXTT4=
EXTT5=
EXTT6=
EXTT7=
EXTT8=
EXTT9=
EXTT10=
EXTT11=
EXTT12=
EXTT13=
PLAYORDER=
